<?xml version="1.0" encoding="UTF-8" standalone="no"?>
<!DOCTYPE svg PUBLIC "-//W3C//DTD SVG 20010904//EN"
              "http://www.w3.org/TR/2001/REC-SVG-20010904/DTD/svg10.dtd">

<svg xmlns="http://www.w3.org/2000/svg"
     width="3.87333in" height="4.33333in"
     viewBox="0 0 1162 1300">
  <path id="Ścieżka"
        fill="black" stroke="black" stroke-width="1"
        d="M 514.00,250.00
           C 514.00,250.00 490.00,20.00 490.00,20.00
             490.00,20.00 450.00,64.00 450.00,64.00
             450.00,64.00 476.00,264.00 476.00,264.00
             150.00,372.00 146.00,840.00 544.00,902.00
             551.18,972.48 553.04,1032.11 554.00,1046.00
             596.00,1012.00 617.61,1019.19 616.00,1006.00
             610.00,957.00 602.00,902.00 602.00,902.00
             602.00,902.00 956.00,908.00 956.00,542.00
             924.00,300.00 752.51,212.31 514.00,250.00 Z
           M 478.00,301.00
           C 478.00,301.00 542.00,862.00 542.00,862.00
             156.00,750.00 268.00,376.00 478.00,301.00 Z
           M 711.00,469.00
           C 711.00,469.00 551.00,552.00 551.00,552.00
             551.00,552.00 520.00,295.00 520.00,295.00
             520.00,295.00 711.00,469.00 711.00,469.00 Z
           M 561.00,620.00
           C 561.00,620.00 742.00,681.00 742.00,681.00
             742.00,681.00 584.00,823.00 584.00,823.00
             584.00,823.00 561.00,620.00 561.00,620.00 Z
           M 837.00,374.00
           C 978.00,524.00 881.04,701.79 880.00,699.00
             772.62,868.16 605.00,858.00 605.00,858.00
             605.00,858.00 729.00,754.00 813.00,659.00
             708.00,629.00 628.85,605.15 555.00,584.00
             681.97,527.02 676.01,528.52 781.00,472.00
             685.00,386.00 558.38,283.00 558.00,283.00
             632.97,277.00 740.00,278.00 837.00,374.00 Z" />
</svg>
