<?xml version="1.0" standalone="no"?>
<!DOCTYPE svg PUBLIC "-//W3C//DTD SVG 20010904//EN"
 "http://www.w3.org/TR/2001/REC-SVG-20010904/DTD/svg10.dtd">
<svg version="1.0" xmlns="http://www.w3.org/2000/svg"
 width="482.000000pt" height="466.000000pt" viewBox="0 0 482.000000 466.000000"
 preserveAspectRatio="xMidYMid meet">

<g transform="translate(0.000000,466.000000) scale(0.100000,-0.100000)"
fill="#000000" stroke="none">
<path d="M2662 4108 c-43 -46 -132 -352 -132 -454 0 -66 -9 -67 -86 -5 -327
265 -666 334 -1048 214 -162 -50 -423 -196 -455 -254 -26 -47 -8 -76 125 -207
l125 -123 -82 -82 c-238 -241 -394 -556 -445 -899 -21 -143 -14 -370 15 -506
123 -576 547 -1054 1241 -1401 243 -121 621 -271 684 -271 29 0 219 64 376
128 790 316 1308 783 1504 1356 188 547 43 1157 -379 1595 l-83 86 69 58 c79
67 174 172 187 208 17 44 -5 75 -93 134 -96 64 -281 154 -377 184 -160 49
-364 65 -504 40 -181 -32 -395 -140 -562 -283 -30 -25 -55 -46 -58 -46 -16 0
40 272 77 372 16 44 29 92 29 107 0 62 -85 94 -128 49z m-717 -369 c79 -19
272 -107 295 -134 10 -12 -5 -13 -97 -8 -232 12 -470 -38 -684 -145 l-136 -68
-54 44 c-66 53 -139 124 -139 133 0 15 269 140 355 164 159 46 308 51 460 14z
m1688 10 c87 -15 201 -55 312 -110 157 -77 153 -68 70 -147 -38 -37 -84 -77
-100 -89 l-31 -21 -54 33 c-192 119 -502 194 -758 183 -133 -6 -133 -6 7 66
184 95 345 119 554 85z m-1355 -324 c144 -30 269 -90 389 -188 55 -44 87 -80
193 -219 37 -48 109 -35 129 24 9 27 8 38 -10 72 -29 57 -110 156 -170 210
l-50 45 37 16 c77 32 154 46 280 52 355 16 663 -101 909 -345 403 -400 531
-1008 319 -1520 -79 -192 -184 -348 -348 -520 -284 -296 -666 -526 -1188 -717
l-158 -58 -122 43 c-758 264 -1303 677 -1538 1165 -106 220 -146 410 -137 654
8 219 49 384 142 571 198 397 509 640 919 715 99 18 319 18 404 0z"/>
<path d="M1644 2603 c-68 -68 -56 -232 24 -317 41 -44 118 -76 182 -76 62 0
141 32 176 71 62 68 82 149 47 182 -30 26 -345 157 -379 157 -18 0 -40 -8 -50
-17z"/>
<path d="M3210 2495 c-80 -35 -157 -71 -172 -80 -79 -46 -14 -187 112 -244
146 -66 324 38 346 202 8 57 -19 151 -48 172 -38 26 -87 16 -238 -50z"/>
<path d="M2425 1768 c-192 -21 -274 -34 -285 -44 -11 -11 -15 -38 -14 -112 4
-248 148 -556 296 -630 124 -61 246 5 319 175 54 125 82 363 61 512 -13 88
-36 125 -78 127 -16 1 -150 -11 -299 -28z"/>
</g>
</svg>
